<?xml version="1.0" encoding="UTF-8"?>
<svg version="1.1" viewBox="0 0 2000 2000" width="500" height="500" xmlns="http://www.w3.org/2000/svg">
<path transform="translate(666,56)" d="m0 0h39v11l-8 37h2l5-23 3-15 4-2-1 10-7 32h13l4-18 6-28 2-4h39v12l-11 54v3l3-16h1l3-16 2-5 4-20 2-4h3l-2 12-9 43-12 57-2 3h-37v-5h15l-23-2-1-5 7-33 2-7h-10l-4-1-4 25-5 27-1 1h-38l1-5h25l9 1v-8l2-10h2l1-11 5-24 14 1 3 1v-2l-19-1-1 7-8 41-1 4-5 1-28-1-9-1-1-3 7-29 11-52 7-31zm87 79 1 3z" fill="#3BC188"/>
<path transform="translate(161,56)" d="m0 0h39l-1 14-7 35h3v-7l3-12 4-21 4-1-1 11-6 28v2l12 1 10-47 2-3h39l-1 14-13 63-1 8 3-13 4-18 5-24 3-12 1-7 2-3h3l-2 14-20 99-2 2h-37l1-5h21l12 1-1-2-1 1-31-1-9-1-1-5 8-37 1-3h-15l-1 13-7 37-1 2h-37l-1-4 12-1-21-2 1-10 17-79 6-26zm102 20 1 4zm-1 6v5h1v-5zm-1 5 1 2zm-1 4 1 4zm-1 6 1 3zm-1 4v5h1v-5zm-1 6 1 2zm-1 4 1 4zm-1 5 1 3zm-67 5-3 12-2 11 1 7h1l3-18 1-9v-2l15 2 4-1-3-2zm64 12m-7 11-2 9v6l2-3 1-5v-7zm-63 7 1 2zm-1 4-1 5v9h1l2-13zm61 4 1 4zm-1 4 1 4z" fill="#3AC188"/>
<path transform="translate(436,54)" d="m0 0h20l14 3 11 6 2 4-2 11-4 14 3-1 5-20h3l-2 14-4 11-26-1-3-1 1-4-9-1-1-4v-7l-2-5-9 6-6 9-3-1 5 7 15 5 13 4 9 5 8 9 4 8v9l-3 12-5 10-7 8-6 4-5 2 7-2 8-6 7-8 5-16 1-7 2 4-1 13-4 10-4 6-9 8-8 4-11 3-9 1h-30l-12-2-11-6-11-9 1-9 4-16 1-1h31l1 3 1 6h5l2 3-3 3-2-1v-3h-2l4 8 4 3 7-1 5-4 4-9-1-7-9-6-10-3-8-3-9-5-4-3v-2h-2l-6-9-2-6v-9l4-13 9-10 10-7 12-5zm-3 15-6 4-5 8v6l5-5 4-6 6-4 4-2-1-1zm43 23m-30 79m-7 1-9 1h-39v1l7 1h40l8-2v-1z" fill="#3AC188"/>
<path transform="translate(281,56)" d="m0 0h40l1 3-2 15-11 54-3 13v6l3-15 2-11 2-7 6-29 5-20 4-1-2 14-10 49-5 22v6h18l7-4 5-8 5-19 12-57 3-11h16v12l-11 52-6 23-7 14-6 7-10 6-9 3 16-5 9-7 7-14 5-19 3-10 3-15 3-12 3-16 2-10 4-1v8l-5 26-7 32-5 19-7 13-5 6-11 7-11 4-6 1h-28l-11-3-11-7-5-4-6-9-2-6v-10l3-21 11-52 3-11zm94 41 1 2zm-1 6m-3 10v6h1l1-6zm-1 6v5h1v-5zm-2 10 1 3zm-1 3 1 4zm-1 6m-77 35m14 1v1h18v-1z" fill="#3AC188"/>
<path transform="translate(556,56)" d="m0 0h97v9l8 1v2l-4 2v3l-1 1 3 1 1-2v3l-3 1h-24-1-4l-2 15-14 68-3 16-2 3h-38l1-4 1-1-2-1-9-1v-7l11-51 7-32v-6l-4-1 1-1h-11v-3h14l2 1v-2h-23l-6-1 1-5zm66 15-6 28-2 11 1 4 6-24v-5h2v-14zm-3 41m-6 3 1 4zm-1 4-1 10 2-3v-7zm-40 55v1h6v-1z" fill="#3AC188"/>
<path transform="translate(56,56)" d="m0 0h92l-1 10 9-1v3l-6 2 3 2-5 3v1l-10 1h-15l-5 28-15 70-1 4h-34l-5-1 1-4 29 1 4 1-1-2h-15l-26-2 1-11 12-57 5-24v-4h-9l-6 1-2-4 1-1h8l-8-2h-7l-2-1 1-5 5-7zm62 14m-1 2-3 12-7 35v5l2-3 3-15 3-12 4-19zm-59 2m66 1m5-1-3 2h5v-2zm-24 56 1 4zm-1 4-1 8 2-2v-6z" fill="#3BC188"/>
<path transform="translate(505,56)" d="m0 0h39v10l-8 42v4l3-16 2-7 5-23 1-2 3 1-6 36-11 52-5 23-1 3h-38l-1-2 1-2 19-1-19-1-8-1-1-1 1-8 10-47 8-37 5-22zm28 64 1 4zm-1 4-1 8 2-3v-5zm-3 15 1 3zm-1 5 1 2z" fill="#3AC188"/>
<path transform="translate(361,56)" d="m0 0h16v12l-11 52-6 23-7 14-6 7-10 6-11 3h-34l-9-1v-1l20-4 6-2h8l12-3v-2l-1-3 1-2 7-4 5-8 5-19 12-57z" fill="#399C8B"/>
<path transform="translate(366,65)" d="m0 0 2 3 2 12v4h-2l-1 7-2 4-1 8-2 5-1 6-2 13-2 5-2 12-6 10-9 6-11-4 4-3 5-5 4-8 6-26 10-47h1l1 5 6-1v-2h-2l1-3z" fill="#3AC188"/>
<path transform="translate(73,221)" d="m0 0 4 2 2 3v11l-2 15h21l1-9 3-19 1-3h3l3 6h1v7l-4 21-3 20-1 10-4 1-5-4 2-13v-10h-11l-9-1-2 17-2 12-6-4-1-5zm34 7-1 1-1 13 2 1 1-15z" fill="#44A092"/>
<path transform="translate(205,253)" d="m0 0 4 2 1 4v14l-2 11-1 3-4-2-3-3-3-10-2-1v9l-4 5-4 2h-12l-2 16-2 13-2 2-5-4v-12l8-46 1-2h3l2 6 5-4 8-1 6 5 7 16-1-5 1-16zm-18 7-3 3-7 12 1 5h5l7-8 2-4-1-5zm1 19-3 4h3l1-4z" fill="#46A093"/>
<path transform="translate(545,222)" d="m0 0 3 1 3 4-1 19-3 17-3 13-1 10-4-1-5-1h-1v-5h2l-1-2-5 6 3 1-1 2h-7l-5-4-2-4v-8l5-10 7-6 7-1 3 1 5-31zm1 27 1 2zm0 3 1 2zm-14 7-2 1v4l-3 3-4 9 3 3 1-3 5-3 4-8v-6zm-5 4v3l2-3z" fill="#47A194"/>
<path transform="translate(381,64)" d="m0 0h2v8l-5 26-7 32-5 19-7 13-5 6-11 7-11 4-6 1h-28l-11-3-3-3 8-1h36l16-5 9-7 7-14 5-19 3-10 3-15 3-12 3-16 2-10zm-6 33 1 2zm-1 6m-3 10v6h1l1-6zm-1 6v5h1v-5zm-2 10 1 3zm-1 3 1 4zm-1 6m-63 36v1h18v-1z" fill="#39A28B"/>
<path transform="translate(771,64)" d="m0 0h3l-2 12-9 43-12 57-2 3h-37v-5h15l-23-2 1-2h24l11-2 2-2 4-15 4-12 1 4-3 15v6l3-15h2v-7l2-11h2v-10l2-12h1l3-16 2-5 4-20z" fill="#3A9D8C"/>
<path transform="translate(344,254)" d="m0 0 4 1 1 5 5-4h10l5 5 1 2v11l-5 8-7 5h-12l-1 8-2 11-1 11h-3l-4-2-1-5 6-37zm13 7-9 15 1 4 6-1 6-7 2-4v-5zm9 10-7 9-3 3h3l6-7 2-5z" fill="#449F92"/>
<path transform="translate(265,64)" d="m0 0h3l-2 14-20 99-2 2h-37l1-5h21l12 1-1-2-1 1-31-1-9-1-1-2 17-1 18 1 3-3 4-8 2-5 2 2 3-15 3-13 4-18 5-24 3-12 1-7zm-2 12 1 4zm-1 6v5h1v-5zm-1 5 1 2zm-1 4 1 4zm-1 6 1 3zm-1 4v5h1v-5zm-1 6 1 2zm-1 4 1 4zm-1 5 1 3zm-3 17m-10 26 1 4zm-1 4 1 4z" fill="#399E8B"/>
<path transform="translate(547,64)" d="m0 0 3 1-6 36-11 52-5 23-1 3h-38l-1-2 1-2 19-1-19-1-8-1 3-2h29l5-3 3-10 5-13 1 4-4 19v3l3-10 1-6h2v-8l2-11h2v-11l2-7h2v-10l2-11 2-7 5-23z" fill="#399C8C"/>
<path transform="translate(618,121)" d="m0 0h1l-1 10-6 29-3 16-2 3h-38l1-4 1-1-2-1-9-1 1-2h9l7 1 1-2 6-1h9l2-5 4-8 4-6 3-10h1v8l-4 26h2v-8l3-15 2-7 2-10 2-3 2 4 1-10zm-46 53v1h6v-1z" fill="#399A8C"/>
<path transform="translate(189,122)" d="m0 0 9 1v2l7 1v1h-13l-1 13-7 37-1 2h-37l-1-4 12-1-21-2v-5l1 4 5-1 10 1 15-3 4-4 2-5 4-4h2l2-4v12l2-8 2-9 2-16h2l-1-6z" fill="#399D8B"/>
<path transform="translate(460,221)" d="m0 0 4 2 2 4-1 16-7 37h24l4 4v3h-21l-11-1-4-3v-8l8-49zm4 7-2 7-1 6v8h1l3-17z" fill="#46A193"/>
<path transform="translate(122,76)" d="m0 0 1 3-9 45-11 51-1 4h-34l-5-1 1-4 29 1 4 1 2-11 1-1 3-18h2l-1-6 3-13 1-1 2-16 4-16 3-14h2l1-3 2 1z" fill="#399E8B"/>
<path transform="translate(254,254)" d="m0 0h8l7 2 2 2-1 26-1 2h-4l-2-4-9 5-7-1-5-4-1-2v-9l5-10zm1 6-5 6-3 7v6h3l1-3 6-5 3-4-1-7zm6 12-5 6v2l-3 1v2l4-2 5-6z" fill="#449F92"/>
<path transform="translate(232,221)" d="m0 0h3l3 6v8l-3 12v4l6 5 1 3-5 1-5-1-3 26-6-1-2-1v-7l2-10v-7l-6-2-1-4 2-1h8l3-22zm3 8-1 10 2-2v-8z" fill="#4AA396"/>
<path transform="translate(508,221)" d="m0 0h3l3 6-1 13-2 12 4 2 3 4v2l-9-1-2 10-2 16h-4l-4-3v-7l2-10v-5l-6-3-1-4 9-1 6-30zm3 8-1 4v8l2-4v-8zm-2 12 1 2zm0 3 1 2z" fill="#4FA599"/>
<path transform="translate(417,221)" d="m0 0 4 2 2 4v11l-2 14 6 4 2 4-8-1-2-1-2 13-1 3-1 11h-3l-4-3v-10l2-13-6-1-3-2 1-3 9-1zm0 29m1 1m-3 13v5h1v-5zm-1 5 1 4z" fill="#439F92"/>
<path transform="translate(456,55)" d="m0 0 11 1 14 7 2 4-2 11-4 14-22-3 4-3 4-2 11-1-1-4-4-2v-5l-10 2 1-11 1-2z" fill="#399B8B"/>
<path transform="translate(480,131)" d="m0 0 2 4-1 13-4 10-4 6-9 8-8 4-11 3-9 1h-30l-11-2 1-3 42-1 19-5 9-6 7-7 6-18z" fill="#3BA18C"/>
<path transform="translate(122,253)" d="m0 0h7l5 3 3 6-1 7-2 3h2l-2 8-6 5-5 1-7-3-4-5-1-2v-9l5-10zm2 4-4 4-2 5v10l4 3 7-8 1-2v-8l-4-4zm9 15 1 2zm-3 4-3 5 4-2 1-3z" fill="#439F91"/>
<path transform="translate(284,222)" d="m0 0 4 2 3 7-6 31-2 12-1 11h-4l-3-2 1-17 7-43zm4 8-3 9v10h1l3-19z" fill="#45A093"/>
<path transform="translate(607,56)" d="m0 0h46v9l8 1v2l-10 1h-20l-6-5-7-3-10-3z" fill="#399A8B"/>
<path transform="translate(695,122)" d="m0 0 13 2 1 3h-7l-4-1-4 25-5 27-1 1h-38l1-5h25l9 1v-8l2-10h2l1-11z" fill="#3AA18C"/>
<path transform="translate(149,253)" d="m0 0 9 1 5 3 3 5v3l-5-2-7-4-5-1 3 3 3 5 7 6 2 4-1 6-5 4-9-2-8-7-2-3v-3l5 2 11 7-2-7-10-9 1-8z" fill="#46A093"/>
<path transform="translate(376,253)" d="m0 0 4 2 2 10 1 10 5-8 6-13 3-1 1 4v2h1v7l-4 10-6 8-2 2-5-1-6-6-2-21zm19 11-5 10v3l4-5 2-5zm-7 12m0 2 1 2z" fill="#53A79B"/>
<path transform="translate(326,64)" d="m0 0h2l-2 14-10 49-6 27-4-4 2-11 3-18 2-7 6-29 5-20z" fill="#39A68A"/>
<path transform="translate(381,64)" d="m0 0h2v8l-5 26-7 32-3 12-2 2-3 7-5 3 1-5 7-24 5-22 3-12 3-16 2-10zm-6 33 1 2zm-1 6m-3 10v6h1l1-6zm-1 6v5h1v-5zm-2 10 1 3zm-1 3 1 4z" fill="#3ABC88"/>
<path transform="translate(626,78)" d="m0 0h1v8l-7 35h-2l-2 13-2-1-2 2-1 10h-2l1 4-3 9-2 15h-2v-9l3-17 2-19 2-8h1l1 6 1-11v-9l1-5h1v11l3-14h3v2h2l1-15z" fill="#3ABA88"/>
<path transform="translate(102,56)" d="m0 0h46l-1 10 9-1v3l-3-1-3 1-20 1-2-3-9-4-5-2-5-1-7-2z" fill="#399A8B"/>
<path transform="translate(606,139)" d="m0 0h1v8l-3 17v12l-26-1-9-2-9-1 1-2h9l7 1 1-2 6-1h9l2-5 4-8 4-6z" fill="#399F8B"/>
<path transform="translate(556,56)" d="m0 0h34l-1 3-10 5v2l-9 3h-11l-1-5-3-2v-5z" fill="#399B8B"/>
<path transform="translate(297,253)" d="m0 0 7 1 6 3 4 6v2l-5-2-8-4-4-1v2l3 1 2 6 4 2 4 5 1 2v7l-3 1-5-5-2-6-9-7-3-3 1-5 4-4z" fill="#429E91"/>
<path transform="translate(265,64)" d="m0 0h3l-2 14-10 49h-2l-2 13-1 5-3-4 2-13 4-18 5-24 3-12 1-7zm-2 12 1 4zm-1 6v5h1v-5zm-1 5 1 2zm-1 4 1 4zm-1 6 1 3zm-1 4v5h1v-5zm-1 6 1 2zm-1 4 1 4zm-1 5 1 3z" fill="#39AD8A"/>
<path transform="translate(56,56)" d="m0 0h31v1l-17 1-1 5 2 3v4h-21l-2-1 1-5 5-7z" fill="#399D8B"/>
<path transform="translate(180,151)" d="m0 0h1v9l-3 13-1 1h-20l-21-2v-5l1 4 5-1 10 1 15-3 4-4 2-5 4-4h2z" fill="#399C8B"/>
<path transform="translate(547,64)" d="m0 0 3 1-6 36-2 10-3 1-2-2 2-14 2-7 5-23z" fill="#39A48A"/>
<path transform="translate(319,56)" d="m0 0h2l1 3-2 15-7 35-2 1 1-14 2-10 1-17v-11l-2-1z" fill="#399F8B"/>
<path transform="translate(471,115)" d="m0 0 4 4 3 6v9l-3 12-5 10-7 8-6 4-4-1 8-7 7-10 4-7 2-4 1-14-4-6z" fill="#399E8B"/>
<path transform="translate(314,116)" d="m0 0 3 1-1 10-6 27-4-4 2-11 3-18z" fill="#399F8B"/>
<path transform="translate(99,150)" d="m0 0 1 4-3 19-1 1h-15l-26-2v-2l13 1h18l5-2 3-4 3-10z" fill="#399C8B"/>
<path transform="translate(682,166)" d="m0 0h1l1 6-2 2-32-1-9-1 3-2h14l9-1h10l5-1z" fill="#399C8B"/>
<path transform="translate(204,64)" d="m0 0h2l-1 11-6 28-2 1-1-4h2l-1-8 5-27z" fill="#399F8B"/>
<path transform="translate(709,64)" d="m0 0h2l-1 10-5 23-2 2-1-1v-8l5-24z" fill="#39A28B"/>
<path transform="translate(287,271)" d="m0 0 7 4 6 4 3 1v2h2l1 4-8-1-6-4-5-6z" fill="#409D90"/>
<path transform="translate(618,121)" d="m0 0h1l-1 10-4 20h-3l-2-3 2-13 2-5 3 4 1-10z" fill="#399D8B"/>
<path transform="translate(486,70)" d="m0 0 2 1-2 14-4 11h-5v-4l3-1 5-20z" fill="#39A28B"/>
<path transform="translate(256,56)" d="m0 0h6l-1 7-7 1-3-1-2-4h-3v-2z" fill="#399C8B"/>
<path transform="translate(433,55)" d="m0 0h19l-3 3-5 1-1 4-4 2-1-3 2-4-6 1-2-1z" fill="#399A8B"/>
<path transform="translate(254,119)" d="m0 0 2 1v7h-2l-2 13-1 5-3-4 2-13 2-7z" fill="#3AB489"/>
<path transform="translate(437,71)" d="m0 0h4l-2 4-7 5-5 8-1-4 3-7 6-5z" fill="#39A18B"/>
<path transform="translate(265,64)" d="m0 0h3l-2 14-1 4h-3l-1 2 1-10 1-7zm-2 12 1 4z" fill="#3AB789"/>
<path transform="translate(383,170)" d="m0 0h8l5 1-1 2 3 2-3 3-12-6z" fill="#3AB189"/>
<path transform="translate(751,140)" d="m0 0 2 1v8h-2v7l-3 9h-1v-7z" fill="#3EC38A"/>
<path transform="translate(396,175)" d="m0 0 27 1v1l-13 1 1 2-12-1-4-2z" fill="#399C8B"/>
<path transform="translate(547,64)" d="m0 0 3 1-3 20h-2v-14z" fill="#399F8B"/>
<path transform="translate(189,122)" d="m0 0 9 1v2l7 1v1h-11l-5 2-1-5z" fill="#39A58A"/>
<path transform="translate(326,64)" d="m0 0h2l-2 14-3 1-1-6 2-8z" fill="#399E8B"/>
<path transform="translate(548,238)" d="m0 0 2 1-1 15-1 2h-3v-6l1-1 1-8zm-2 14 1 2z" fill="#B2D7D2"/>
<path transform="translate(626,78)" d="m0 0h1v8l-5 24h-1l1-10 3-20z" fill="#39A08B"/>
<path transform="translate(126,71)" d="m0 0h16l5 1-3 2h-20v-2z" fill="#399A8C"/>
<path transform="translate(544,76)" d="m0 0 2 3v12l-4 2-1-4z" fill="#39AC8A"/>
<path transform="translate(701,56)" d="m0 0h4v11l-2 7h-1v-13l-4-4z" fill="#39A08B"/>
<path transform="translate(263,82)" d="m0 0h1l-1 10-1 6-3-1-1-7 2-5zm-2 5 1 2zm-1 4 1 4z" fill="#3AB489"/>
<path transform="translate(706,84)" d="m0 0 1 4-3 11-2-1v-8l2-4h2z" fill="#399E8B"/>
<path transform="translate(547,279)" d="m0 0 4 1 4 5v2l-5-1-3-3z" fill="#439F92"/>
<path transform="translate(419,240)" d="m0 0h3l-1 10h-4l1-7z" fill="#A3D0C9"/>
<path transform="translate(401,177)" d="m0 0h22l1 2-13 1-1-1-9-1z" fill="#3BC288"/>
<path transform="translate(314,93)" d="m0 0h1l-1 11-2 6h-1l1-14z" fill="#39A28B"/>
<path transform="translate(115,73)" d="m0 0h1l-1 11-3 11-1-4 2-11z" fill="#39A28B"/>
<path transform="translate(179,162)" d="m0 0h1l1 12-1 2h-6l3-3z" fill="#3BC288"/>
<path transform="translate(207,236)" d="m0 0 4 1 4 6-2 1-6-4-1-3z" fill="#3F9D8F"/>
<path transform="translate(361,56)" d="m0 0h16v1l-12 1-1 2h-2l-2 2z" fill="#3BC288"/>
<path transform="translate(605,158)" d="m0 0 2 3-2 12h-2v-9z" fill="#3BC288"/>
<path transform="translate(200,77)" d="m0 0 2 1-1 10-1 5h-1l-1-7z" fill="#3AB789"/>
<path transform="translate(134,272)" d="m0 0h2l-2 8-4 2h-3l4-4 1-4h2z" fill="#A9D3CD"/>
<path transform="translate(87,175)" d="m0 0h6v3h-16v-1l9-1z" fill="#3AB289"/>
<path transform="translate(398,119)" d="m0 0 6 2 6 3v1h-6l-6-4z" fill="#39A18B"/>
<path transform="translate(265,64)" d="m0 0h3l-2 14-2 3 1-14z" fill="#399C8B"/>
<path transform="translate(125,261)" d="m0 0h2v2h-2z" fill="#FEFEFE"/>
<path transform="translate(424,80)" d="m0 0v3z" fill="#3BC288"/>
<path transform="translate(253,264)" d="m0 0 1 2-2-1z" fill="#FEFEFE"/>
<path transform="translate(471,155)" d="m0 0 1 2-2-1z" fill="#3BC288"/>
<path transform="translate(532,261)" d="m0 0 2 1z" fill="#FEFEFE"/>
<path transform="translate(138,270)" d="m0 0" fill="#399A8C"/>
<path transform="translate(185,264)" d="m0 0" fill="#FEFEFE"/>
<path transform="translate(254,263)" d="m0 0" fill="#FEFEFE"/>
<path transform="translate(351,160)" d="m0 0" fill="#3BC288"/>
<path transform="translate(414,129)" d="m0 0" fill="#3BC288"/>
<path transform="translate(479,87)" d="m0 0" fill="#3BC288"/>
</svg>
